<svg width="25" height="30" viewBox="0 0 25 30" fill="none" xmlns="http://www.w3.org/2000/svg">
    <path d="M24.9531 29.4825C24.8495 26.0741 23.5112 25.3016 23.1156 25.1461C22.7074 24.8993 21.5538 24.5345 19.4072 24.1185C19.3676 24.2204 19.3088 24.3136 19.2342 24.3928C19.2107 24.4184 19.19 24.444 19.1675 24.4705L16.864 22.14L16.1764 22.6255C15.8853 21.9105 15.8222 21.0173 15.8231 20.3691C16.8002 19.8843 17.6759 19.2128 18.4024 18.3915V19.8735L22.0135 17.5422V7.35993C21.9757 6.23037 21.6991 5.12224 21.2024 4.11062C20.4472 2.60847 18.8349 0.819245 15.4474 0.819245H14.2506L15.0968 1.67774C15.153 1.74503 15.1995 1.82016 15.2347 1.90083C15.3014 1.90083 15.3681 1.9054 15.4347 1.91088C15.7231 1.899 16.2954 1.87705 16.2927 1.86974V1.87706C16.5819 1.89929 16.8685 1.94857 17.1488 2.02425C20.9555 2.99155 21.0239 7.16336 21.0239 7.36267V16.9899L19.3955 18.0413V10.7555L19.2261 10.6056C18.5466 10.0031 16.8235 7.08839 16.0358 5.70236C15.5735 5.01666 15.4501 4.86855 15.3581 4.69666C15.1112 4.38307 14.9571 4.10147 14.7273 4.21119C14.5813 4.26604 14.3542 4.52295 14.2956 4.59427L14.2262 5.09529L15.013 5.95561C15.259 6.39629 17.3462 10.057 18.406 11.1953V16.7641C17.0542 18.8166 14.9021 20.1469 12.4869 20.1469C10.1709 20.1469 8.09993 18.9245 6.73822 17.0137C6.78328 15.1669 6.81843 12.6984 6.72831 11.5784C9.93656 10.4173 14.2677 6.05435 15.1833 5.10626L15.1671 5.09894C15.0968 5.0706 15.0274 5.04134 14.9589 5.00751C14.8381 4.95306 14.7351 4.86497 14.6617 4.75346C14.5883 4.64195 14.5476 4.51162 14.5444 4.37758L14.5029 4.37118C13.663 5.23791 9.03987 9.90343 6.05061 10.74L5.56847 10.879L5.70636 11.3672C5.84424 11.8581 5.79648 15.5728 5.70636 18.3997L3.6994 17.7479V7.84998C3.7623 6.83355 3.99957 5.83605 4.40053 4.90237C5.26477 2.91109 6.74363 1.66769 8.78934 1.20598L8.8371 1.19501L8.88306 1.1749C9.44 0.923471 12.0571 0.791817 13.554 1.93465C13.6683 2.02221 13.7758 2.11849 13.8757 2.22265C13.9738 2.11961 14.0989 2.047 14.2361 2.01328C14.4542 1.95707 14.6768 1.92096 14.9012 1.9054C14.6909 1.61035 14.4378 1.34927 14.1505 1.13101C12.3482 -0.240394 9.42288 -0.121539 8.5307 0.234112C6.20021 0.772617 4.4537 2.25831 3.4786 4.53118C3.03093 5.57663 2.77003 6.6945 2.70808 7.83261V18.4784L6.65351 19.7583L6.67604 19.0946C6.67604 18.962 6.68686 18.77 6.69407 18.5323C7.39503 19.2906 8.22628 19.913 9.14711 20.3691C9.14711 21.02 9.08493 21.9188 8.78664 22.6346L8.08461 22.1391L5.79377 24.4623C5.74631 24.342 5.72838 24.2117 5.74151 24.0828C3.47951 24.5126 2.27191 24.8911 1.85285 25.1452C1.45362 25.3007 0.118956 26.0732 0.0153187 29.4816L0 30H24.9631L24.9531 29.4825ZM10.1375 20.7732C11.664 21.2779 13.309 21.2779 14.8354 20.7732C14.8634 21.5183 14.985 22.4362 15.3491 23.2115L12.4788 25.2376L9.61934 23.2216C9.98702 22.4426 10.1096 21.5211 10.1375 20.7732ZM1.03547 28.9952C1.21571 26.6309 2.07725 26.1473 2.20071 26.0897L2.27101 26.1098L2.37375 26.0037C2.48099 25.9443 3.11002 25.638 5.36841 25.1809L8.45409 28.9961L1.03547 28.9952ZM6.57961 25.0913L8.20176 23.4456L11.4316 25.7258L8.84341 27.8844L6.57961 25.0913ZM9.066 28.9952L12.4752 26.161L15.8844 28.9952H9.066ZM13.5197 25.7258L16.7496 23.4456L18.3717 25.0913L16.1169 27.8844L13.5197 25.7258ZM16.4936 28.9952L19.5811 25.1781C21.808 25.6252 22.4586 25.9324 22.5839 26.001L22.61 26.0613L22.7569 26.0878C22.8552 26.1308 23.7482 26.5889 23.9285 28.9961L16.4936 28.9952Z"
          fill="#3363BE"/>
    <path d="M15.1715 16.5475C15.221 16.5032 15.2613 16.4493 15.29 16.3889C15.3187 16.3286 15.3352 16.263 15.3386 16.1961C15.342 16.1292 15.3322 16.0623 15.3097 15.9993C15.2872 15.9363 15.2526 15.8785 15.2078 15.8293C15.163 15.7801 15.109 15.7404 15.0488 15.7127C14.9887 15.6849 14.9238 15.6697 14.8578 15.6678C14.7918 15.6658 14.726 15.6773 14.6645 15.7015C14.6029 15.7258 14.5467 15.7622 14.4992 15.8088C13.6539 16.5996 12.7644 16.851 11.8551 16.5557C11.4086 16.4052 11 16.1571 10.6584 15.8289C10.5666 15.7359 10.4426 15.6831 10.3129 15.6818C10.1832 15.6805 10.0582 15.7309 9.96464 15.822C9.87112 15.9132 9.81655 16.0379 9.81264 16.1695C9.80873 16.301 9.85579 16.4288 9.94372 16.5255C9.96084 16.5429 11.0648 17.6848 12.6094 17.6848C13.3808 17.6858 14.2613 17.4005 15.1715 16.5475Z"
          fill="#3363BE"/>
</svg>
