<svg width="22" height="30" viewBox="0 0 22 30" fill="none" xmlns="http://www.w3.org/2000/svg">
    <path d="M3.51676 6.52882H8.32182C8.46682 6.52882 8.60589 6.47038 8.70842 6.36635C8.81096 6.26233 8.86856 6.12124 8.86856 5.97413C8.86856 5.82702 8.81096 5.68593 8.70842 5.58191C8.60589 5.47789 8.46682 5.41945 8.32182 5.41945H3.51676C3.44463 5.41892 3.37311 5.43288 3.30631 5.46051C3.23952 5.48815 3.17878 5.52893 3.12759 5.58049C3.0764 5.63205 3.03578 5.69337 3.00805 5.76093C2.98033 5.82849 2.96606 5.90095 2.96606 5.97413C2.96354 6.048 2.9761 6.12161 3.00294 6.19032C3.02977 6.25904 3.07032 6.3214 3.12202 6.37347C3.17372 6.42555 3.23548 6.46623 3.3034 6.49296C3.37133 6.51969 3.44397 6.5319 3.51676 6.52882Z"
          fill="#3363BE"/>
    <path d="M10.6779 6.54492C9.85861 6.54977 9.05338 6.76112 8.33458 7.15996C7.61578 7.55881 7.00596 8.13264 6.55996 8.82985H3.3457C3.14797 8.82985 2.97 9.06356 2.97 9.38454C2.97 9.70551 3.12819 9.93922 3.3457 9.93922H6.03101C5.79474 10.6414 5.71498 11.3879 5.79746 12.1251C5.87995 12.8623 6.12264 13.5718 6.50802 14.2024C6.89341 14.8329 7.4119 15.3689 8.02611 15.7716C8.64033 16.1743 9.33496 16.4337 10.0599 16.5312V17.9435C9.69967 18.0726 9.38753 18.3115 9.16629 18.6275C8.94504 18.9435 8.82552 19.3212 8.82408 19.7089V23.4703C8.82408 23.9691 9.01939 24.4474 9.36704 24.8001C9.7147 25.1528 10.1862 25.351 10.6779 25.351C11.1695 25.351 11.6411 25.1528 11.9887 24.8001C12.3364 24.4474 12.5317 23.9691 12.5317 23.4703V19.7089C12.53 19.3213 12.4103 18.9437 12.1891 18.6278C11.9679 18.3118 11.6559 18.0728 11.2958 17.9435V16.5312C12.5362 16.3634 13.6677 15.7246 14.4621 14.7437C15.2564 13.7628 15.6546 12.5128 15.5762 11.2458C15.4978 9.97878 14.9487 8.78907 14.0396 7.91666C13.1305 7.04424 11.9292 6.55404 10.6779 6.54492ZM11.2958 23.4713C11.2958 23.6375 11.2307 23.797 11.1148 23.9146C10.9989 24.0321 10.8418 24.0982 10.6779 24.0982C10.514 24.0982 10.3568 24.0321 10.2409 23.9146C10.1251 23.797 10.0599 23.6375 10.0599 23.4713V19.7099C10.0599 19.5436 10.1251 19.3841 10.2409 19.2666C10.3568 19.149 10.514 19.083 10.6779 19.083C10.8418 19.083 10.9989 19.149 11.1148 19.2666C11.2307 19.3841 11.2958 19.5436 11.2958 19.7099V23.4713ZM10.6779 15.3215C9.94459 15.3215 9.22776 15.1009 8.61804 14.6876C8.00833 14.2743 7.53311 13.6869 7.25249 12.9996C6.97187 12.3123 6.89845 11.556 7.04151 10.8263C7.18457 10.0967 7.53768 9.42646 8.0562 8.90042C8.57472 8.37437 9.23536 8.01613 9.95456 7.871C10.6738 7.72586 11.4192 7.80035 12.0967 8.08505C12.7742 8.36974 13.3533 8.85185 13.7607 9.47041C14.168 10.089 14.3855 10.8162 14.3855 11.5601C14.3856 12.0541 14.2898 12.5433 14.1035 12.9997C13.9173 13.4561 13.6442 13.8708 13.2999 14.2201C12.9555 14.5695 12.5468 14.8465 12.0969 15.0355C11.647 15.2245 11.1648 15.3217 10.6779 15.3215Z"
          fill="#3363BE"/>
    <path d="M8.20616 11.5601H9.44104C9.44104 11.2276 9.57125 10.9087 9.80302 10.6735C10.0348 10.4384 10.3491 10.3063 10.6769 10.3063V9.05249C10.0215 9.05276 9.3931 9.31707 8.92977 9.7873C8.46644 10.2575 8.20616 10.8952 8.20616 11.5601Z"
          fill="#3363BE"/>
    <path d="M21.2273 6.30914C21.2185 6.26154 21.1985 6.21681 21.169 6.17874C19.4486 4.20776 17.5494 1.97298 16.8879 1.10335H16.9314L16.6744 0.792404C16.6528 0.753296 16.6236 0.719142 16.5884 0.692099L16.0169 0H3.46044C2.54267 0 1.6625 0.369871 1.01354 1.02825C0.36458 1.68662 0 2.57957 0 3.51065V26.4894C0 27.4204 0.36458 28.3134 1.01354 28.9718C1.6625 29.6301 2.54267 30 3.46044 30H17.7965C18.7139 29.9987 19.5933 29.6284 20.242 28.9703C20.8907 28.3122 21.2557 27.42 21.257 26.4894V6.34424L21.2273 6.30914ZM19.5594 5.99218H16.7614V2.68916C17.0985 3.10241 17.5207 3.60794 18.021 4.19372C18.5697 4.84369 19.1273 5.49166 19.5594 5.99218ZM17.7965 28.8967H3.46044C2.83111 28.8967 2.22757 28.643 1.78257 28.1916C1.33757 27.7401 1.08757 27.1278 1.08757 26.4894V3.51065C1.08757 2.87219 1.33757 2.25989 1.78257 1.80843C2.22757 1.35697 2.83111 1.10335 3.46044 1.10335H15.6738V6.54385C15.6738 6.69016 15.7311 6.83048 15.8331 6.93394C15.9351 7.0374 16.0734 7.09552 16.2176 7.09552H20.1724V26.4894C20.1724 26.8057 20.1109 27.119 19.9915 27.4113C19.872 27.7035 19.697 27.9691 19.4763 28.1926C19.2557 28.4162 18.9937 28.5935 18.7055 28.7143C18.4173 28.8351 18.1084 28.897 17.7965 28.8967Z"
          fill="#3363BE"/>
</svg>
