<svg width="34" height="30" viewBox="0 0 34 30" fill="none" xmlns="http://www.w3.org/2000/svg">
    <path d="M2.93824 13.0909L6.7771 10.2086C6.89677 10.1195 6.97647 9.98608 6.99866 9.83771C7.02086 9.68934 6.98373 9.53816 6.89545 9.4174C6.80671 9.29738 6.67436 9.21782 6.52749 9.19621C6.38063 9.1746 6.23127 9.21271 6.11224 9.30215L3.55266 11.2209C4.11688 9.20887 5.12455 7.35148 6.50036 5.78757C7.87618 4.22366 9.58456 2.99367 11.4978 2.18952C13.4111 1.38537 15.4798 1.02786 17.5493 1.1437C19.6187 1.25955 21.6355 1.84575 23.4489 2.85851C25.4175 3.9648 27.0891 5.53861 28.319 7.44361L15.7969 20.0765L11.0235 15.2557C10.9619 15.1936 10.8889 15.1443 10.8084 15.1107C10.728 15.0771 10.6418 15.0598 10.5547 15.0598C10.4677 15.0598 10.3814 15.0771 10.301 15.1107C10.2206 15.1443 10.1475 15.1936 10.0859 15.2557C10.0244 15.3178 9.97553 15.3916 9.94221 15.4727C9.90889 15.5539 9.89174 15.6408 9.89174 15.7287C9.89174 15.8165 9.90889 15.9035 9.94221 15.9846C9.97553 16.0658 10.0244 16.1395 10.0859 16.2016L15.3348 21.4855C15.396 21.5473 15.4688 21.5964 15.5489 21.6299C15.629 21.6634 15.7148 21.6807 15.8015 21.6807C15.8882 21.6807 15.974 21.6634 16.0541 21.6299C16.1342 21.5964 16.207 21.5473 16.2682 21.4855L29.0095 8.63141C29.5283 9.64552 29.92 10.7208 30.1756 11.8325C30.2487 11.9623 30.4185 12.1232 30.8178 12.1512C31.0432 12.0827 31.1873 11.9737 31.2583 11.6144C31.2577 11.6065 31.2577 11.5985 31.2583 11.5905V11.577C30.9576 10.2573 30.4791 8.98529 29.836 7.79662L31.5269 6.09071C31.6507 5.96583 31.7203 5.79645 31.7203 5.61984C31.7203 5.44324 31.6507 5.27386 31.5269 5.14898C31.4031 5.0241 31.2353 4.95394 31.0602 4.95394C30.8851 4.95394 30.7173 5.0241 30.5935 5.14898L29.1258 6.62647C28.5876 5.82225 27.9741 5.07194 27.2939 4.38583C25.4526 2.53171 23.1614 1.19715 20.6492 0.515309C18.1369 -0.166535 15.4913 -0.171818 12.9764 0.499985C10.4615 1.17179 8.16516 2.49719 6.31656 4.34394C4.46795 6.19069 3.1317 8.49422 2.44114 11.0247L1.06306 8.19533C1.03093 8.12848 0.985881 8.06879 0.930562 8.01976C0.875243 7.97073 0.810769 7.93334 0.740927 7.9098C0.636086 7.87365 0.522972 7.8697 0.415904 7.89845C0.308836 7.92719 0.212628 7.98733 0.13946 8.07127C0.066291 8.1552 0.0194514 8.25914 0.00487021 8.36995C-0.00971098 8.48075 0.00862188 8.59342 0.0575481 8.69371L2.10048 12.8874C2.13663 12.9619 2.18856 13.0276 2.25263 13.0797C2.31669 13.1318 2.39131 13.1691 2.47122 13.1889C2.55112 13.2087 2.63437 13.2105 2.71507 13.1943C2.79577 13.1781 2.87195 13.1442 2.93824 13.095V13.0909Z" fill="#3363BE"/>
    <path d="M33.6903 20.9657L31.6463 16.7721C31.6103 16.6975 31.5584 16.6319 31.4945 16.5798C31.4305 16.5277 31.3559 16.4904 31.2761 16.4706C31.1963 16.4508 31.1131 16.4489 31.0325 16.4651C30.9519 16.4813 30.8758 16.5152 30.8096 16.5644L26.9707 19.4478C26.9116 19.4919 26.8617 19.5474 26.8239 19.6111C26.7861 19.6747 26.7612 19.7453 26.7505 19.8187C26.7398 19.8921 26.7435 19.9669 26.7615 20.0389C26.7795 20.1108 26.8115 20.1784 26.8554 20.2379C26.8992 20.2975 26.9542 20.3478 27.0173 20.386C27.0804 20.4241 27.1503 20.4493 27.2231 20.4601C27.2959 20.4709 27.37 20.4671 27.4413 20.4489C27.5126 20.4307 27.5797 20.3986 27.6386 20.3542L30.0809 18.5206C29.4997 20.7548 28.3743 22.8071 26.8071 24.4911C25.2398 26.175 23.2803 27.4371 21.1066 28.1629C18.9329 28.8886 16.6139 29.0548 14.3604 28.6466C12.1068 28.2383 9.99004 27.2684 8.20247 25.825C7.02353 24.8737 6.00726 23.7337 5.19416 22.4505C4.36809 21.148 3.76515 19.7145 3.41058 18.2101C3.21298 17.9111 2.95671 17.964 2.77043 18.0025L2.74882 18.0076C2.44624 18.0471 2.35258 18.2963 2.32788 18.4988C3.10748 21.7752 4.95758 24.6914 7.58018 26.7778C10.2028 28.8642 13.4452 29.9992 16.7851 30.0001C20.125 30.0009 23.368 28.8675 25.9916 26.7824C28.6152 24.6974 30.4668 21.782 31.248 18.506L32.6889 21.4672C32.7212 21.5339 32.7663 21.5934 32.8215 21.6424C32.8767 21.6914 32.9409 21.729 33.0105 21.7529C33.0801 21.7768 33.1537 21.7866 33.2271 21.7818C33.3005 21.777 33.3722 21.7576 33.4381 21.7247C33.5041 21.6916 33.5629 21.6457 33.6113 21.5896C33.6597 21.5336 33.6966 21.4684 33.7201 21.3979C33.7435 21.3275 33.7529 21.253 33.7478 21.1789C33.7427 21.1047 33.7231 21.0323 33.6903 20.9657Z" fill="#3363BE"/>
</svg>
