<svg width="33" height="30" viewBox="0 0 33 30" fill="none" xmlns="http://www.w3.org/2000/svg">
    <path d="M2.2309 8.94861H30.7811C31.0283 8.94868 31.2683 8.86759 31.4621 8.71848C31.6559 8.56937 31.7923 8.36099 31.8491 8.1271C31.9059 7.89321 31.8798 7.64752 31.775 7.42987C31.6702 7.21221 31.4929 7.03534 31.2718 6.92792L17.253 0.112476C17.1002 0.0385813 16.9319 8.38149e-05 16.7613 1.53986e-07C16.5963 -8.60714e-05 16.4333 0.0360406 16.2846 0.105689L1.7542 6.92114C1.53027 7.02602 1.34962 7.20173 1.24183 7.41949C1.13404 7.63724 1.1055 7.88413 1.16089 8.11972C1.21628 8.3553 1.35232 8.56562 1.54671 8.71621C1.74111 8.8668 1.98235 8.94874 2.2309 8.94861ZM16.7613 1.06658L30.7811 7.88203H2.2309L16.7613 1.06658Z"
          fill="#3363BE"/>
    <path d="M29.9783 25.6619V22.6629H26.053V9.01746H24.956V22.6629H23.2487V9.01746H22.1517V22.6629H18.4817V9.01746H17.3846V22.6629H15.6783V9.01746H14.5813V22.6629H10.9113V9.01746H9.81426V22.6629H8.10692V9.01746H7.0099V22.6629H3.36483V25.6503H4.46185V23.7295H28.8813V25.6619H0V30H32.2222V25.6619H29.9783ZM31.1252 28.9334H1.09701V26.7285H31.1252V28.9334Z"
          fill="#3363BE"/>
</svg>
