<svg width="24" height="30" viewBox="0 0 24 30" fill="none" xmlns="http://www.w3.org/2000/svg">
    <path d="M20.6513 3.57466e-05H6.30846C5.45495 0.00338015 4.63692 0.346932 4.03081 0.956598C3.4247 1.56626 3.07908 2.39319 3.06848 3.25903C2.23848 3.3044 1.45734 3.67136 0.886332 4.28415C0.315324 4.89693 -0.00195255 5.70877 9.04177e-06 6.55203V26.712C0.00312558 27.5831 0.345584 28.4175 0.95271 29.0335C1.55984 29.6494 2.38238 29.9968 3.24098 30H17.5819C18.4356 29.9969 19.2538 29.6535 19.8602 29.0438C20.4665 28.4341 20.8122 27.607 20.8228 26.741C21.6523 26.6957 22.4329 26.3293 23.004 25.7174C23.5751 25.1055 23.893 24.2947 23.8923 23.452V3.31703C23.8981 2.88226 23.8184 2.45068 23.6579 2.0475C23.4974 1.64433 23.2594 1.27763 22.9577 0.968822C22.6559 0.660019 22.2966 0.415302 21.9006 0.248965C21.5046 0.0826275 21.0799 -0.00199632 20.6513 3.57466e-05ZM19.7642 26.712C19.7643 27.0024 19.708 27.29 19.5986 27.5583C19.4891 27.8266 19.3286 28.0704 19.1262 28.2757C18.9238 28.481 18.6835 28.6439 18.419 28.755C18.1545 28.866 17.8711 28.9231 17.5848 28.923H3.24098C2.95842 28.9234 2.67857 28.8672 2.41745 28.7577C2.15632 28.6482 1.91907 28.4875 1.71927 28.2848C1.51948 28.0821 1.36106 27.8414 1.25312 27.5765C1.14517 27.3116 1.0898 27.0277 1.09019 26.741V6.55203C1.08915 6.26491 1.14403 5.9804 1.25168 5.71486C1.35932 5.44932 1.51762 5.20796 1.71746 5.00465C1.91731 4.80135 2.15478 4.6401 2.41623 4.53016C2.67768 4.42022 2.95796 4.36376 3.24098 4.36403H14.8288V9.42702C14.8287 9.49968 14.8427 9.57165 14.87 9.6388C14.8974 9.70596 14.9375 9.76697 14.9882 9.81835C15.0388 9.86972 15.099 9.91045 15.1652 9.9382C15.2314 9.96594 15.3023 9.98015 15.3739 9.98002H19.7612L19.7642 26.712ZM15.92 8.87402V5.23703L19.1038 8.87402H15.92ZM20.8485 25.664V9.42702C20.8485 9.36902 20.8199 9.28202 20.8199 9.22702C20.8168 9.20478 20.8067 9.18412 20.7913 9.16803C20.7627 9.13902 20.7627 9.11002 20.7341 9.08102L15.7711 3.43303C15.7273 3.39749 15.6789 3.36821 15.6272 3.34603C15.5986 3.34603 15.5987 3.31703 15.5701 3.31703C15.4987 3.28068 15.4202 3.26087 15.3404 3.25903H4.15866C4.16869 2.68627 4.39924 2.14023 4.801 1.73769C5.20275 1.33515 5.74381 1.10808 6.30846 1.10503H20.6513C20.9339 1.10477 21.2138 1.16106 21.4749 1.27069C21.7361 1.38031 21.9733 1.54112 22.1731 1.74389C22.3729 1.94667 22.5313 2.18743 22.6392 2.4524C22.7471 2.71737 22.8025 3.00133 22.8021 3.28803V23.482H22.8307C22.8261 24.0299 22.6211 24.5566 22.2553 24.9598C21.8896 25.363 21.3893 25.6139 20.8514 25.664H20.8485Z"
          fill="#3363BE"/>
    <path d="M3.90035 9.97995H8.69083C8.8354 9.97995 8.97405 9.92169 9.07627 9.81799C9.17849 9.71428 9.23592 9.57362 9.23592 9.42695C9.23592 9.28029 9.17849 9.13963 9.07627 9.03592C8.97405 8.93222 8.8354 8.87395 8.69083 8.87395H3.90035C3.82844 8.87343 3.75713 8.88734 3.69054 8.9149C3.62395 8.94245 3.5634 8.9831 3.51236 9.0345C3.46133 9.08591 3.42082 9.14705 3.39318 9.2144C3.36554 9.28176 3.35131 9.354 3.35132 9.42695C3.34881 9.5006 3.36133 9.57398 3.38808 9.64249C3.41484 9.711 3.45526 9.77316 3.50681 9.82508C3.55835 9.877 3.61992 9.91756 3.68764 9.94421C3.75536 9.97086 3.82778 9.98303 3.90035 9.97995Z"
          fill="#3363BE"/>
    <path d="M8.66227 23.336H3.90037C3.75581 23.336 3.61716 23.3943 3.51494 23.498C3.41271 23.6017 3.35528 23.7424 3.35528 23.889C3.35528 24.0357 3.41271 24.1763 3.51494 24.28C3.61716 24.3838 3.75581 24.442 3.90037 24.442H8.69086C8.83542 24.442 8.97407 24.3838 9.07629 24.28C9.17852 24.1763 9.23595 24.0357 9.23595 23.889C9.22455 23.7412 9.15964 23.6029 9.05371 23.5008C8.94778 23.3987 8.80834 23.34 8.66227 23.336Z"
          fill="#3363BE"/>
    <path d="M3.3513 13.094C3.35065 13.1673 3.36439 13.2401 3.39174 13.3081C3.41908 13.376 3.45949 13.4377 3.51059 13.4897C3.56169 13.5416 3.62246 13.5827 3.68938 13.6106C3.75629 13.6384 3.828 13.6525 3.90033 13.652H16.6927C16.8373 13.652 16.9759 13.5937 17.0781 13.49C17.1804 13.3863 17.2378 13.2456 17.2378 13.099C17.2329 12.9539 17.1739 12.8161 17.0727 12.7135C16.9715 12.6108 16.8357 12.551 16.6927 12.546H3.90033C3.75593 12.5449 3.61702 12.602 3.51408 12.7048C3.41115 12.8075 3.3526 12.9475 3.3513 13.094Z"
          fill="#3363BE"/>
    <path d="M16.6927 15.252H3.90037C3.75581 15.252 3.61716 15.3103 3.51494 15.414C3.41271 15.5177 3.35528 15.6584 3.35528 15.805C3.35528 15.9517 3.41271 16.0924 3.51494 16.1961C3.61716 16.2998 3.75581 16.358 3.90037 16.358H16.6927C16.7643 16.358 16.8352 16.3437 16.9013 16.3159C16.9675 16.2881 17.0276 16.2474 17.0782 16.1961C17.1288 16.1447 17.1689 16.0837 17.1963 16.0167C17.2237 15.9496 17.2378 15.8777 17.2378 15.805C17.2329 15.66 17.1739 15.5222 17.0727 15.4195C16.9716 15.3169 16.8357 15.257 16.6927 15.252Z"
          fill="#3363BE"/>
    <path d="M16.6927 17.982H3.90037C3.75581 17.982 3.61716 18.0403 3.51494 18.144C3.41271 18.2477 3.35528 18.3883 3.35528 18.535C3.35528 18.6817 3.41271 18.8223 3.51494 18.926C3.61716 19.0298 3.75581 19.088 3.90037 19.088H16.6927C16.8373 19.088 16.976 19.0298 17.0782 18.926C17.1804 18.8223 17.2378 18.6817 17.2378 18.535C17.2378 18.3883 17.1804 18.2477 17.0782 18.144C16.976 18.0403 16.8373 17.982 16.6927 17.982Z"
          fill="#3363BE"/>
    <path d="M16.6927 20.688H3.90037C3.75581 20.688 3.61716 20.7462 3.51494 20.8499C3.41271 20.9536 3.35528 21.0943 3.35528 21.2409C3.35528 21.3876 3.41271 21.5283 3.51494 21.632C3.61716 21.7357 3.75581 21.7939 3.90037 21.7939H16.6927C16.8373 21.7939 16.976 21.7357 17.0782 21.632C17.1804 21.5283 17.2378 21.3876 17.2378 21.2409C17.2378 21.0943 17.1804 20.9536 17.0782 20.8499C16.976 20.7462 16.8373 20.688 16.6927 20.688Z"
          fill="#3363BE"/>
</svg>