<svg width="30" height="30" viewBox="0 0 30 30" fill="none" xmlns="http://www.w3.org/2000/svg">
    <path d="M29.4543 6.01685C29.5168 5.95629 29.5667 5.88369 29.6011 5.80329C29.6355 5.72289 29.6538 5.63632 29.6548 5.54867C29.6558 5.46102 29.6395 5.37406 29.6069 5.29288C29.5742 5.21171 29.526 5.13797 29.4649 5.07598C29.4038 5.014 29.3311 4.96503 29.2511 4.93195C29.1711 4.89887 29.0853 4.88234 28.9989 4.88334C28.9126 4.88434 28.8272 4.90284 28.748 4.93777C28.6687 4.97269 28.5972 5.02333 28.5375 5.08671L27.0669 6.57857C26.5284 5.76777 25.914 5.01158 25.2323 4.32053C22.4433 1.53683 18.683 -0.0160564 14.7705 0.000125205C10.8581 0.0163068 7.11044 1.60025 4.3439 4.40693C1.57736 7.21361 0.0160736 11.0156 0.000123415 14.9848C-0.0158267 18.9541 1.51485 22.7689 4.25874 25.5983C6.78336 28.1565 10.1322 29.7057 13.6914 29.9622C17.2506 30.2186 20.7817 29.165 23.6373 26.9945C26.4929 24.824 28.4817 21.682 29.2392 18.1446C29.9966 14.6071 29.4719 10.9112 27.7613 7.73442L29.4543 6.01685ZM28.4786 14.9599C28.4777 18.3084 27.2878 21.5444 25.1269 24.0754C22.966 26.6064 19.9787 28.263 16.712 28.7417C13.4454 29.2205 10.1181 28.4894 7.33946 26.6823C4.56082 24.8752 2.51684 22.1132 1.58183 18.9019C0.646819 15.6906 0.883366 12.2451 2.24815 9.1964C3.61294 6.14765 6.01462 3.6997 9.01335 2.30088C12.0121 0.902046 15.4072 0.645956 18.5768 1.5795C21.7465 2.51305 24.4786 4.57375 26.2728 7.38422L13.7593 20.0793L8.98659 15.2373C8.86409 15.1185 8.70064 15.0531 8.53123 15.0551C8.36182 15.0571 8.19989 15.1262 8.08008 15.2477C7.96028 15.3693 7.89213 15.5336 7.89019 15.7054C7.88826 15.8773 7.95271 16.0431 8.06975 16.1674L13.3014 21.476C13.3615 21.5373 13.4329 21.5859 13.5116 21.6191C13.5903 21.6523 13.6746 21.6694 13.7598 21.6694C13.845 21.6694 13.9294 21.6523 14.0081 21.6191C14.0867 21.5859 14.1582 21.5373 14.2182 21.476L26.9512 8.56031C27.9595 10.5382 28.4834 12.7333 28.4786 14.9599Z"
          fill="#3363BE"/>
</svg>
